<?xml version="1.0" encoding="UTF-8"?>
<svg xmlns="http://www.w3.org/2000/svg" width="520" height="340" viewBox="0 0 520 340" fill="none">
  <g clip-path="url(#clip0_406_145)">
    <path d="M0 8C0 3.58172 3.58172 0 8 0H512C516.418 0 520 3.58172 520 8V332C520 336.418 516.418 340 512 340H8C3.58172 340 0 336.418 0 332V8Z" fill="#25303E"></path>
    <g clip-path="url(#clip1_406_145)">
      <path fill-rule="evenodd" clip-rule="evenodd" d="M174 84H346V256H174V84Z" fill="url(#paint0_linear_406_145)"></path>
      <path fill-rule="evenodd" clip-rule="evenodd" d="M271.296 122.847H264.829V118.508H271.296V112H275.607V118.508H282.075V122.847H275.607V129.355H271.296V122.847ZM297.165 146.71H290.698V142.372H297.165V135.863H301.477V142.372H307.944V146.71H301.477V153.219H297.165V146.71ZM285.938 215.272C281.82 204.811 272.318 195.249 261.918 191.103C272.318 186.959 281.82 177.397 285.938 166.934C290.055 177.397 299.558 186.959 309.955 191.103C299.558 195.249 290.055 204.811 285.938 215.272ZM320.544 188.934C305.381 188.934 288.094 171.537 288.094 156.278C288.094 155.08 287.13 154.108 285.938 154.108C284.746 154.108 283.782 155.08 283.782 156.278C283.782 171.537 266.493 188.934 251.329 188.934C250.139 188.934 249.173 189.905 249.173 191.103C249.173 192.303 250.139 193.272 251.329 193.272C266.493 193.272 283.782 210.669 283.782 225.931C283.782 227.128 284.746 228.1 285.938 228.1C287.13 228.1 288.094 227.128 288.094 225.931C288.094 210.669 305.381 193.272 320.544 193.272C321.734 193.272 322.7 192.303 322.7 191.103C322.7 189.905 321.734 188.934 320.544 188.934ZM202.312 146.192C208.589 150.787 220.786 153.219 232.492 153.219C244.198 153.219 256.395 150.787 262.673 146.192V166.971C259.566 171.127 248.143 175.223 232.923 175.223C215.403 175.223 202.312 169.713 202.312 164.786V146.192ZM232.492 129.355C251.191 129.355 262.673 135.041 262.673 139.118C262.673 143.194 251.191 148.88 232.492 148.88C213.793 148.88 202.312 143.194 202.312 139.118C202.312 135.041 213.793 129.355 232.492 129.355ZM262.673 210.775C262.673 215.776 249.762 221.37 232.481 221.37C215.214 221.37 202.312 215.776 202.312 210.775V196.913C208.667 201.763 221.108 204.332 233.046 204.332C241.348 204.332 249.376 203.152 255.643 201.008L254.259 196.9C248.425 198.893 240.891 199.993 233.046 199.993C215.455 199.993 202.312 194.483 202.312 189.556V172.155C208.649 176.998 221.036 179.562 232.923 179.562C245.66 179.562 256.583 176.922 262.673 172.741V179.252H266.984V139.118C266.984 129.958 249.214 125.016 232.492 125.016C216.451 125.016 199.487 129.577 198.134 138.033H198V210.775C198 220.475 215.766 225.709 232.481 225.709C249.208 225.709 266.984 220.475 266.984 210.775V203.115H262.673V210.775Z" fill="white"></path>
    </g>
  </g>
  <defs>
    <linearGradient id="paint0_linear_406_145" x1="172.478" y1="257.522" x2="346" y2="84" gradientUnits="userSpaceOnUse">
      <stop stop-color="#2E27AD"></stop>
      <stop offset="1" stop-color="#527FFF"></stop>
    </linearGradient>
    <clipPath id="clip0_406_145">
      <rect width="520" height="340" fill="white"></rect>
    </clipPath>
    <clipPath id="clip1_406_145">
      <rect width="172" height="172" fill="white" transform="translate(174 84)"></rect>
    </clipPath>
  </defs>
</svg>
